<?xml version="1.0" standalone="no"?>
<!DOCTYPE svg PUBLIC "-//W3C//DTD SVG 20010904//EN"
 "http://www.w3.org/TR/2001/REC-SVG-20010904/DTD/svg10.dtd">
<svg version="1.0" xmlns="http://www.w3.org/2000/svg"
 width="1280.000000pt" height="720.000000pt" viewBox="0 0 1280.000000 720.000000"
 preserveAspectRatio="xMidYMid meet">
<metadata>
Created by potrace 1.16, written by Peter Selinger 2001-2019
</metadata>
<g transform="translate(0.000000,720.000000) scale(0.100000,-0.100000)"
fill="#000000" stroke="none">
<path d="M0 3600 l0 -3600 6400 0 6400 0 0 3600 0 3600 -6400 0 -6400 0 0
-3600z m7470 460 c0 -1067 -3 -1610 -10 -1610 -7 0 -10 543 -10 1610 0 1067 3
1610 10 1610 7 0 10 -543 10 -1610z m548 1478 c-3 -23 -6 -23 -165 -26 l-163
-2 0 25 0 25 166 0 165 0 -3 -22z m-7144 -134 c20 -20 21 -70 1 -82 -14 -7
-13 -11 5 -27 26 -23 26 -69 0 -95 -16 -16 -33 -20 -85 -20 l-65 0 0 120 0
120 64 0 c45 0 69 -5 80 -16z m617 6 c64 -35 64 -185 0 -220 -11 -5 -41 -10
-66 -10 -38 0 -52 5 -76 29 -26 26 -29 36 -29 91 0 55 3 65 29 91 24 24 38 29
76 29 25 0 55 -5 66 -10z m168 -71 c17 -44 31 -86 31 -92 0 -22 16 8 46 86 27
72 34 82 58 85 l26 3 0 -120 c0 -114 -1 -121 -20 -121 -18 0 -20 7 -21 83 l0
82 -32 -82 c-41 -105 -56 -108 -91 -15 -14 37 -30 78 -35 92 -7 19 -10 3 -10
-67 -1 -76 -4 -93 -16 -93 -12 0 -15 20 -15 120 l0 120 24 0 c21 0 28 -11 55
-81z m410 -13 l56 -89 3 92 c2 72 6 91 17 91 12 0 15 -21 15 -120 0 -114 -1
-120 -20 -120 -15 0 -37 26 -80 93 l-60 92 0 -92 c0 -76 -3 -93 -15 -93 -13 0
-15 20 -15 121 0 118 0 120 22 117 14 -2 39 -31 77 -92z m318 86 c7 -4 9 -13
5 -19 -6 -9 -17 -10 -42 -2 -50 15 -87 -2 -106 -48 -13 -30 -14 -44 -5 -74 14
-47 32 -61 79 -63 37 -1 37 -1 40 42 3 39 1 42 -22 42 -14 0 -26 5 -26 10 0 6
20 10 45 10 l45 0 0 -59 c0 -68 -4 -71 -87 -71 -47 0 -59 4 -84 29 -25 25 -29
37 -29 83 1 60 16 95 51 114 26 14 117 18 136 6z m279 -107 c24 -60 44 -113
44 -117 0 -5 -8 -8 -18 -8 -13 0 -23 13 -32 40 -13 38 -15 40 -55 40 -40 0
-43 -2 -58 -40 -9 -23 -22 -40 -31 -40 -9 0 -16 3 -16 8 0 8 78 211 87 225 15
25 39 -7 79 -108z m7384 70 l0 -25 -724 0 c-571 0 -725 3 -729 13 -13 37 -17
37 729 37 l724 0 0 -25z m-3000 -65 c0 -19 -7 -20 -209 -20 -202 0 -232 4
-216 30 4 6 87 10 216 10 202 0 209 -1 209 -20z m1460 -260 l0 -30 -275 0
-275 0 0 30 0 30 275 0 275 0 0 -30z m-7238 -28 c100 -40 146 -120 135 -231
-7 -61 -43 -124 -88 -149 -36 -21 -36 -27 1 -42 79 -33 123 -139 101 -246 -14
-72 -43 -116 -101 -155 -79 -53 -120 -59 -377 -59 l-233 0 0 456 0 456 253 -4
c234 -3 256 -5 309 -26z m848 -77 l0 -105 -150 0 -150 0 0 -65 0 -65 135 0
135 0 0 -105 0 -105 -135 0 -135 0 0 -80 0 -80 150 0 150 0 0 -100 0 -100
-280 0 -280 0 0 455 0 455 280 0 280 0 0 -105z m770 0 l0 -105 -110 0 -110 0
0 -350 0 -350 -130 0 -130 0 0 350 0 350 -110 0 -110 0 0 105 0 105 350 0 350
0 0 -105z m740 0 l0 -105 -110 0 -110 0 0 -350 0 -350 -130 0 -130 0 0 350 0
350 -110 0 -110 0 0 105 0 105 350 0 350 0 0 -105z m670 0 l0 -105 -150 0
-150 0 0 -65 0 -65 135 0 135 0 0 -105 0 -105 -135 0 -135 0 0 -80 0 -80 150
0 150 0 0 -100 0 -100 -280 0 -280 0 0 455 0 455 280 0 280 0 0 -105z m671 69
c103 -49 141 -110 141 -229 1 -94 -21 -143 -90 -206 l-55 -50 132 -195 132
-194 -148 0 -149 0 -93 160 c-87 147 -96 160 -122 160 l-29 0 0 -160 0 -160
-130 0 -130 0 0 456 0 456 238 -4 237 -3 66 -31z m2179 21 c0 -13 -36 -15
-265 -15 -229 0 -265 2 -265 15 0 13 36 15 265 15 229 0 265 -2 265 -15z
m1030 -145 l0 -30 -165 0 -165 0 0 23 c0 13 3 27 7 30 3 4 78 7 165 7 l158 0
0 -30z m-900 -55 c0 -13 -39 -15 -290 -15 -251 0 -290 2 -290 15 0 13 39 15
290 15 251 0 290 -2 290 -15z m3498 -107 l3 -28 -170 0 -171 0 0 30 0 30 168
-2 167 -3 3 -27z m-438 -3 l0 -25 -1245 0 -1245 0 0 25 0 25 1245 0 1245 0 0
-25z m438 -327 l-3 -23 -285 0 -285 0 -3 23 -3 22 291 0 291 0 -3 -22z m-2598
-323 l0 -25 -165 0 -165 0 0 25 0 25 165 0 165 0 0 -25z m-7126 -59 c45 -19
49 -27 31 -70 -17 -41 -22 -42 -72 -21 -89 37 -177 4 -177 -68 0 -49 16 -64
121 -114 138 -66 172 -116 161 -233 -6 -63 -45 -115 -107 -143 -62 -28 -195
-30 -263 -4 -52 20 -56 31 -37 86 12 34 28 39 62 17 31 -20 105 -36 139 -29
36 7 75 44 84 78 14 55 -16 90 -118 139 -127 60 -168 107 -168 192 0 39 22 99
48 128 9 10 35 27 57 37 50 23 189 26 239 5z m557 2 c85 -29 155 -104 181
-192 19 -64 16 -222 -5 -283 -25 -70 -93 -144 -159 -173 -76 -33 -202 -33
-276 0 -109 47 -172 164 -172 315 0 113 30 196 94 260 31 31 69 58 96 68 54
19 193 22 241 5z m669 -43 l0 -45 -135 0 -135 0 0 -100 0 -100 125 0 125 0 0
-45 0 -45 -125 0 -125 0 0 -145 0 -145 -55 0 -55 0 0 335 0 335 190 0 190 0 0
-45z m540 0 l0 -45 -100 0 -100 0 0 -290 0 -290 -60 0 -60 0 0 290 0 290 -100
0 -100 0 0 45 0 45 260 0 260 0 0 -45z m158 13 c5 -18 29 -120 53 -225 24
-106 46 -189 49 -185 4 4 26 81 49 172 23 91 49 189 58 218 l15 53 61 -3 62
-3 47 -200 c26 -110 50 -211 54 -225 5 -18 19 24 54 160 26 102 52 204 59 228
l12 42 59 0 c33 0 60 -3 60 -7 0 -5 -41 -156 -92 -336 l-92 -328 -60 3 -61 3
-54 227 -55 227 -61 -227 -62 -227 -61 -3 c-34 -2 -62 -1 -62 1 0 2 -36 145
-80 318 -44 173 -80 322 -80 332 0 14 9 17 60 17 58 0 59 0 68 -32z m1123
-288 c59 -173 108 -323 108 -333 1 -16 -7 -18 -61 -15 l-61 3 -35 103 -34 102
-97 0 -97 0 -34 -105 -34 -105 -58 0 c-48 0 -58 3 -58 18 0 9 48 160 107 335
l108 318 69 -3 70 -3 107 -315z m534 294 c53 -28 85 -83 85 -151 0 -67 -13
-99 -57 -140 l-36 -34 20 -22 c11 -12 23 -27 26 -33 9 -16 67 -232 67 -249 0
-12 -14 -15 -60 -15 l-59 0 -10 38 c-6 20 -18 69 -27 107 -24 97 -61 135 -133
135 l-51 0 0 -140 0 -140 -55 0 -55 0 0 329 c0 254 3 331 13 335 6 3 75 4 152
3 120 -2 146 -5 180 -23z m565 -19 l0 -45 -135 0 -135 0 0 -95 0 -95 125 0
125 0 0 -45 0 -45 -125 0 -125 0 0 -105 0 -105 140 0 140 0 0 -45 0 -45 -195
0 -195 0 0 335 0 335 190 0 190 0 0 -45z m5140 -60 l0 -25 -1245 0 -1245 0 0
25 0 25 1245 0 1245 0 0 -25z m440 0 l0 -25 -170 0 -170 0 0 25 0 25 170 0
170 0 0 -25z m-3630 -30 c0 -13 -36 -15 -265 -15 -229 0 -265 2 -265 15 0 13
36 15 265 15 229 0 265 -2 265 -15z m130 -200 c0 -13 -36 -15 -287 -13 -218 2
-287 6 -291 16 -3 9 59 12 287 12 253 0 291 -2 291 -15z m2830 -95 l0 -30
-670 0 -670 0 0 30 0 30 670 0 670 0 0 -30z m668 -2 l-3 -23 -285 0 -285 0 -3
23 -3 22 291 0 291 0 -3 -22z m-1389 -293 c12 -24 15 -26 23 -11 13 23 30 9
23 -17 -4 -12 -19 -46 -33 -76 l-26 -53 24 -20 25 -20 -28 -24 c-22 -18 -40
-24 -78 -24 -43 0 -55 5 -81 31 l-31 31 -51 -19 c-48 -17 -92 -18 -678 -15
l-628 2 0 25 0 25 695 0 c589 0 696 2 701 14 3 8 -6 39 -20 69 -25 52 -33 77
-20 65 3 -4 15 3 26 14 15 15 22 17 28 8 6 -9 18 -7 51 8 53 24 60 23 78 -13z
m-5789 -26 c59 -26 96 -62 128 -124 34 -65 43 -212 18 -297 -43 -149 -189
-232 -348 -199 -89 19 -146 63 -188 145 -33 65 -35 74 -35 171 0 97 2 105 35
170 58 114 128 154 265 154 59 1 92 -5 125 -20z m4580 -4 l0 -25 -165 0 -165
0 0 25 0 25 165 0 165 0 0 -25z m-7123 0 c70 -21 123 -63 158 -126 28 -51 30
-60 30 -164 -1 -95 -4 -117 -25 -159 -31 -63 -81 -113 -139 -138 -64 -27 -190
-42 -283 -34 l-78 8 0 308 c0 285 1 309 18 313 45 12 271 6 319 -8z m643 -25
l0 -40 -125 0 -125 0 0 -85 0 -85 120 0 120 0 0 -45 0 -45 -120 0 -120 0 0
-100 0 -100 130 0 130 0 0 -45 0 -45 -185 0 -185 0 0 315 0 315 180 0 180 0 0
-40z m208 -117 c28 -87 60 -191 73 -232 l22 -74 63 189 c35 104 71 208 80 232
l16 42 59 0 c32 0 59 -3 59 -6 0 -4 -46 -133 -101 -288 -56 -155 -106 -293
-111 -308 -9 -26 -14 -28 -68 -28 l-59 0 -100 303 c-56 167 -101 309 -101 315
0 8 21 12 59 12 l59 0 50 -157z m792 117 l0 -40 -125 0 -125 0 0 -85 0 -85
120 0 120 0 0 -45 0 -45 -120 0 -120 0 0 -100 0 -100 130 0 130 0 0 -45 0 -45
-185 0 -185 0 0 315 0 315 180 0 180 0 0 -40z m210 -230 l0 -270 130 0 130 0
0 -45 0 -45 -185 0 -185 0 0 315 0 315 55 0 55 0 0 -270z m1255 251 c53 -24
91 -70 100 -121 24 -141 -57 -231 -223 -246 l-72 -7 0 -118 0 -119 -55 0 -55
0 0 309 c0 238 3 310 13 314 6 3 66 6 132 6 96 0 128 -3 160 -18z m555 -21 l0
-40 -125 0 -125 0 0 -85 0 -85 120 0 120 0 0 -45 0 -45 -120 0 -120 0 0 -100
0 -100 130 0 130 0 0 -45 0 -45 -185 0 -185 0 0 315 0 315 180 0 180 0 0 -40z
m429 15 c48 -28 72 -65 78 -118 7 -60 -11 -110 -53 -147 l-35 -31 24 -28 c13
-16 29 -51 36 -77 7 -27 21 -79 32 -116 10 -36 19 -71 19 -77 0 -7 -22 -11
-55 -11 -63 0 -64 1 -90 110 -30 128 -57 160 -132 160 l-43 0 0 -135 0 -135
-55 0 -55 0 0 309 c0 238 3 311 13 315 6 3 73 4 147 3 114 -2 140 -5 169 -22z
m5191 -150 l0 -25 -340 0 c-233 0 -340 3 -340 11 0 5 -5 7 -10 4 -13 -8 -8 18
5 27 6 4 162 8 348 8 l337 0 0 -25z m440 0 l0 -25 -170 0 -170 0 0 25 0 25
170 0 170 0 0 -25z m-1830 -309 c0 -48 18 -46 -461 -46 l-449 0 0 23 c0 13 3
27 7 30 3 4 208 7 455 7 380 0 448 -2 448 -14z m1160 -16 l0 -30 -204 0 -204
0 -4 25 c-5 23 -2 24 46 28 28 2 122 4 209 5 l157 2 0 -30z m1360 0 l0 -30
-285 0 c-245 0 -286 2 -291 15 -4 8 -4 22 0 30 5 13 46 15 291 15 l285 0 0
-30z m-1959 -90 c10 -6 19 -21 19 -33 0 -15 11 -27 32 -37 17 -8 38 -25 46
-37 13 -21 11 -24 -32 -54 -38 -27 -46 -38 -46 -64 0 -17 -5 -36 -12 -43 -17
-17 -389 -17 -406 0 -7 7 -12 28 -12 48 0 31 -6 41 -45 70 -25 19 -45 38 -45
42 0 17 49 58 70 58 11 0 20 6 20 14 0 8 7 22 16 30 13 13 45 16 195 16 105 0
188 -4 200 -10z m-571 -393 c0 -53 47 -433 54 -446 13 -21 -17 -113 -50 -152
-41 -49 -42 -57 -8 -65 30 -8 136 3 144 15 3 4 13 10 23 14 16 6 18 17 17 84
-2 43 2 121 8 173 7 52 12 136 12 185 0 50 3 120 7 158 l6 67 158 0 c145 0
159 -2 159 -17 0 -10 8 -115 17 -233 9 -118 16 -258 15 -312 l-3 -96 33 -17
c60 -30 178 -32 178 -4 0 6 -14 29 -32 51 -36 46 -62 131 -48 158 5 9 12 91
15 181 3 90 8 194 11 231 l6 68 1419 2 1419 3 0 -91 c0 -116 -16 -203 -42
-231 -46 -49 -5 -48 -1436 -48 -738 0 -1342 -3 -1342 -7 0 -33 43 -217 64
-272 36 -95 101 -212 142 -255 19 -20 34 -39 34 -43 0 -3 33 -33 74 -66 97
-78 203 -118 340 -128 92 -6 98 -8 125 -39 36 -42 46 -93 27 -140 l-15 -35
-1163 2 -1163 3 -11 34 c-15 46 -2 107 30 140 24 25 37 29 109 36 204 17 361
113 480 292 69 105 139 291 162 430 l7 43 -1344 2 c-1262 3 -1345 4 -1375 21
-18 9 -39 30 -47 46 -20 38 -36 140 -36 231 l0 75 1410 -3 1410 -2 0 -43z"/>
<path d="M1384 5376 c-24 -20 -28 -31 -28 -76 0 -45 4 -56 28 -76 35 -31 61
-30 91 1 20 19 25 34 25 75 0 41 -5 56 -25 75 -30 31 -56 32 -91 1z"/>
<path d="M970 4775 l0 -75 28 0 c47 1 113 17 127 31 28 29 29 66 1 93 -22 23
-34 26 -91 26 l-65 0 0 -75z"/>
<path d="M970 4420 l0 -90 33 0 c63 1 121 18 139 40 26 32 23 86 -7 115 -21
22 -33 25 -95 25 l-70 0 0 -90z"/>
<path d="M4690 4754 l0 -95 48 7 c67 10 99 28 111 67 23 70 -20 117 -106 117
l-53 0 0 -96z"/>
<path d="M1460 3938 c-166 -44 -213 -335 -75 -457 116 -102 262 -27 294 152
32 174 -87 339 -219 305z"/>
<path d="M3886 3757 c-16 -50 -31 -98 -33 -104 -3 -10 14 -13 66 -13 39 0 71
3 71 7 0 15 -65 203 -70 203 -3 0 -18 -42 -34 -93z"/>
<path d="M4413 3933 c-9 -3 -13 -35 -13 -109 l0 -104 55 0 c61 0 105 18 129
52 18 26 21 80 5 110 -21 39 -129 71 -176 51z"/>
<path d="M3426 3200 c-37 -12 -82 -54 -109 -105 -17 -32 -22 -57 -22 -125 0
-77 3 -90 31 -140 78 -137 225 -128 292 18 33 73 34 166 3 237 -28 63 -46 83
-96 106 -44 20 -56 21 -99 9z"/>
<path d="M838 3194 c-5 -4 -8 -111 -8 -237 l0 -230 73 5 c128 8 193 60 222
177 13 50 14 72 5 113 -24 112 -91 168 -214 176 -39 2 -74 1 -78 -4z"/>
<path d="M3970 3089 l0 -111 55 4 c66 6 104 30 123 81 28 72 -34 137 -132 137
l-46 0 0 -111z"/>
<path d="M4930 3099 l0 -102 50 6 c69 8 102 26 121 65 36 70 -20 132 -117 132
l-54 0 0 -101z"/>
</g>
</svg>
